<?xml version="1.0" standalone="no"?>
<!DOCTYPE svg PUBLIC "-//W3C//DTD SVG 20010904//EN"
 "http://www.w3.org/TR/2001/REC-SVG-20010904/DTD/svg10.dtd">
<svg version="1.0" xmlns="http://www.w3.org/2000/svg"
 width="512.000000pt" height="512.000000pt" viewBox="0 0 512.000000 512.000000"
 preserveAspectRatio="xMidYMid meet">

<g transform="translate(0.000000,512.000000) scale(0.100000,-0.100000)"
fill="#FFFBFE" stroke="none">
<path d="M444 5105 c-155 -33 -307 -152 -379 -294 -66 -133 -65 -103 -65
-1158 l0 -953 1210 0 1210 0 0 1210 0 1210 -957 -1 c-755 0 -971 -3 -1019 -14z
m826 -643 c19 -9 45 -32 57 -51 22 -32 23 -44 23 -197 l0 -164 164 0 c153 0
165 -1 197 -23 93 -62 87 -189 -12 -239 -28 -15 -61 -18 -191 -18 l-158 0 0
-157 c0 -131 -3 -164 -18 -192 -50 -99 -177 -105 -239 -12 -22 32 -23 44 -23
197 l0 164 -162 0 c-144 0 -167 2 -195 20 -87 53 -96 158 -18 230 26 24 32 25
198 30 l172 5 5 171 c4 154 7 174 25 194 52 59 113 74 175 42z"/>
<path d="M2700 3910 l0 -1210 1210 0 1210 0 0 953 c0 778 -3 964 -14 1018 -45
211 -223 390 -434 434 -55 12 -234 15 -1019 15 l-953 0 0 -1210z m1725 110
c78 -72 69 -177 -18 -230 -30 -19 -54 -20 -492 -20 -418 0 -463 2 -494 18 -99
50 -105 177 -12 240 l35 23 477 -3 477 -3 27 -25z"/>
<path d="M0 1468 c0 -779 3 -965 14 -1019 45 -211 224 -390 435 -435 54 -11
240 -14 1019 -14 l952 0 0 1210 0 1210 -1210 0 -1210 0 0 -952z m968 168 c15
-8 74 -62 132 -120 l105 -106 105 104 c58 57 119 111 137 120 118 59 245 -67
188 -188 -8 -17 -62 -78 -120 -136 l-105 -104 121 -123 121 -122 -4 -61 c-3
-49 -9 -65 -33 -90 -16 -17 -46 -35 -68 -41 -65 -17 -100 2 -225 125 l-112
110 -103 -100 c-125 -123 -140 -134 -195 -134 -85 0 -142 56 -142 140 0 57 10
72 134 198 l101 102 -107 108 c-58 59 -111 117 -117 129 -16 32 -13 101 6 133
34 59 123 86 181 56z"/>
<path d="M2700 1210 l0 -1210 953 0 c778 0 964 3 1018 14 211 45 390 224 435
435 11 54 14 240 14 1019 l0 952 -1210 0 -1210 0 0 -1210z m1709 405 c96 -57
91 -196 -10 -247 -31 -16 -76 -18 -489 -18 -421 0 -458 1 -490 18 -47 25 -85
98 -75 148 8 46 61 103 105 114 19 5 235 8 480 7 425 -2 446 -3 479 -22z m-35
-556 c112 -31 141 -176 49 -246 l-36 -28 -461 -3 -461 -3 -45 24 c-60 32 -90
96 -72 155 14 47 54 89 96 101 46 14 882 13 930 0z"/>
</g>
</svg>
